Coordinates
version=1
nRows=24
nColumns=24
inDegrees=yes

Units are S.I. units (second, meters, Newtons, ...)
Angles are in degrees.

endheader
time	pelvis_tilt	pelvis_list	pelvis_rotation	pelvis_tx	pelvis_ty	pelvis_tz	hip_flexion_r	hip_adduction_r	hip_rotation_r	knee_angle_r	ankle_angle_r	subtalar_angle_r	mtp_angle_r	hip_flexion_l	hip_adduction_l	hip_rotation_l	knee_angle_l	ankle_angle_l	subtalar_angle_l	mtp_angle_l	lumbar_extension	lumbar_bending	lumbar_rotation
      4.32000000	     -8.99655263	      2.96425331	     -9.35347227	     -0.45145386	     -0.04858760	      0.62303407	     -7.94885851	     -0.80267329	      0.58274934	    -11.09668314	     14.47753702	      1.11343954	      5.43364367	     37.25522105	     -2.76966914	    -19.11059812	    -11.85969218	     -0.20253310	     16.54776532	    -11.92450144	      5.46165907	     -0.97791231	     13.49075491
      4.32500000	     -9.03569974	      3.32439540	     -9.31080735	     -0.44391136	     -0.04985995	      0.62294016	     -8.16908823	     -1.29165414	      0.38700933	    -11.50205394	     14.47229498	      1.42590123	      5.44566494	     37.38729907	     -2.38272874	    -19.09884167	    -12.44522256	     -1.17862246	     15.79406306	    -10.32902920	      5.65554391	     -1.46080792	     13.26824680
      4.33000000	     -9.11410627	      3.73985917	     -9.46939304	     -0.43645522	     -0.05104514	      0.62305075	     -8.26438519	     -1.84859441	      0.51351280	    -11.98801551	     14.38590846	      1.52036891	      5.50492838	     37.56348245	     -2.08691354	    -19.14434222	    -13.15806624	     -1.97362699	     15.14178235	     -9.61452332	      5.89812245	     -1.96228559	     13.33609161
      4.33500000	     -9.15196200	      4.16194195	     -9.43593145	     -0.42891483	     -0.05214248	      0.62288601	     -8.42122157	     -2.41771943	      0.31619544	    -12.48189995	     14.25930942	      1.83601705	      5.59021263	     37.72282223	     -1.65925407	    -19.00819433	    -13.85770206	     -3.11698222	     14.49699724	     -8.23184275	      6.08909261	     -2.50290670	     13.14482739
      4.34000000	     -9.20026983	      4.61599761	     -9.46174551	     -0.42132295	     -0.05321042	      0.62281510	     -8.54145619	     -3.02108130	      0.24802905	    -13.00319474	     14.08771245	      2.04842888	      5.68356529	     37.93839904	     -1.27519691	    -18.99400411	    -14.70524165	     -4.13219852	     14.06381291	     -6.96297834	      6.30983122	     -3.06931125	     13.05564636
      4.34500000	     -9.22413668	      5.05328111	     -9.40275147	     -0.41373938	     -0.05413981	      0.62262569	     -8.68447396	     -3.60557397	      0.09305083	    -13.54774505	     13.79396801	      2.28038277	      5.78957064	     38.15363265	     -0.85206549	    -18.81275310	    -15.61024623	     -5.12878063	     13.68772761	     -5.94464748	      6.48524401	     -3.63437630	     12.85337855
      4.35000000	     -9.26017994	      5.49970209	     -9.34200636	     -0.40611155	     -0.05499248	      0.62248435	     -8.81316872	     -4.18224522	      0.09451560	    -14.09545142	     13.36986809	      2.29444314	      5.83403126	     38.43068147	     -0.45417506	    -18.67321333	    -16.69108359	     -5.78949125	     13.60475164	     -5.71058725	      6.68075280	     -4.21577782	     12.69300619
      4.35500000	     -9.26377051	      5.98588010	     -9.29156515	     -0.39849179	     -0.05573234	      0.62216177	     -8.88036248	     -4.86074918	     -0.21371566	    -14.79384506	     12.98497887	      2.82088321	      6.09745908	     38.65756954	      0.03503239	    -18.34076963	    -17.68387899	     -6.62334941	     13.01487909	     -4.88411563	      6.83833524	     -4.81815017	     12.53576115
      4.36000000	     -9.27139667	      6.43410031	     -9.21669191	     -0.39082817	     -0.05639487	      0.62199151	     -8.96783018	     -5.44875673	     -0.21552259	    -15.47611866	     12.39534130	      2.85813427	      6.16838342	     38.92615619	      0.44611225	    -18.14062705	    -18.84601317	     -7.05650401	     12.91887601	     -4.69971997	      6.99775216	     -5.40600681	     12.35263846
      4.36500000	     -9.27268419	      6.90742389	     -9.13514806	     -0.38319642	     -0.05697937	      0.62160461	     -8.96170538	     -6.12653340	     -0.54459081	    -16.31653225	     11.84377352	      3.45284389	      6.56414045	     39.16146037	      0.95429455	    -17.70273729	    -19.90999699	     -7.55880785	     12.31844089	     -4.25765880	      7.14039688	     -5.99752028	     12.18618541
      4.37000000	     -9.26649661	      7.35014514	     -9.03704700	     -0.37550062	     -0.05746585	      0.62128763	     -8.95791481	     -6.75374083	     -0.74154591	    -17.18200104	     11.11222960	      3.83366040	      6.92521228	     39.38059775	      1.42338259	    -17.38044876	    -21.01665434	     -7.83013145	     11.93308091	     -4.00673178	      7.27653150	     -6.56751050	     12.01149241
      4.37500000	     -9.26462447	      7.75848703	     -8.93429509	     -0.36781780	     -0.05786686	      0.62093430	     -8.90081112	     -7.35452849	     -0.93645889	    -18.13434372	     10.26447592	      4.26546673	      7.34336338	     39.57556122	      1.87778710	    -17.04665162	    -22.09536754	     -7.96240644	     11.51705817	     -3.85224454	      7.40573122	     -7.09578949	     11.84706095
      4.38000000	     -9.26358606	      8.13577039	     -8.82631908	     -0.36014321	     -0.05817425	      0.62054354	     -8.78920515	     -7.93521845	     -1.13324973	    -19.17884398	      9.29949589	      4.75297171	      7.83330896	     39.72826461	      2.32175599	    -16.73208350	    -23.11511480	     -7.98295813	     11.09634737	     -3.71115522	      7.52480732	     -7.58407847	     11.69055186
      4.38500000	     -9.26801728	      8.47792953	     -8.71457180	     -0.35249138	     -0.05837461	      0.62013710	     -8.61613856	     -8.48725475	     -1.30359517	    -20.31408840	      8.20909449	      5.27712874	      8.36811247	     39.83062921	      2.74862551	    -16.44510688	    -24.04872236	     -7.92487503	     10.69627179	     -3.51286772	      7.63925127	     -8.03252032	     11.53899343
      4.39000000	     -9.29434581	      8.79882045	     -8.59985627	     -0.34489581	     -0.05847699	      0.61972351	     -8.34729545	     -9.01971168	     -1.43099109	    -21.56513048	      7.01643358	      5.80703345	      8.86933912	     39.89291643	      3.16582795	    -16.19692302	    -24.87190684	     -7.82654344	     10.33323003	     -3.23429837	      7.76386730	     -8.45166039	     11.39050554
      4.39500000	     -9.30039632	      9.05252957	     -8.48793479	     -0.33738307	     -0.05845503	      0.61923611	     -8.03476275	     -9.50562629	     -1.57916863	    -22.90796354	      5.71791609	      6.42408222	      9.45912887	     39.87430135	      3.54445205	    -15.96389024	    -25.60332295	     -7.66023386	      9.98044198	     -2.79279719	      7.84183067	     -8.78743977	     11.25681922
      4.40000000	     -9.31969971	      9.29585889	     -8.35658085	     -0.32989956	     -0.05827640	      0.61874563	     -7.65745260	     -9.97727576	     -1.64764714	    -24.30810641	      4.28226343	      7.01636914	     10.14268118	     39.78583190	      3.93548257	    -15.76338602	    -26.17454322	     -7.53320122	      9.68518558	     -2.14462185	      7.92779424	     -9.11482897	     11.10027995
      4.40500000	     -9.33671017	      9.49064909	     -8.23590779	     -0.32252734	     -0.05797648	      0.61825240	     -7.21124972	    -10.39984986	     -1.65454545	    -25.79019225	      2.75827661	      7.56731093	     10.84467258	     39.63311656	      4.28473769	    -15.60063393	    -26.64003876	     -7.37629272	      9.44322175	     -1.30393648	      7.99203688	     -9.38388649	     10.96248073
      4.41000000	     -9.36194377	      9.66320569	     -8.12443838	     -0.31524104	     -0.05757288	      0.61779173	     -6.68037647	    -10.79533605	     -1.61498661	    -27.35895761	      1.18927091	      8.06525911	     11.51015928	     39.42576167	      4.61480840	    -15.46879223	    -26.99399760	     -7.18566406	      9.24594703	     -0.35540641	      8.05655792	     -9.62761701	     10.84546403
      4.41500000	     -9.34823442	      9.80467636	     -7.99925131	     -0.30799877	     -0.05698405	      0.61734062	     -6.16328519	    -11.13504387	     -1.47634021	    -28.91671118	     -0.50076041	      8.27910066	     12.34369493	     39.10298639	      4.94532888	    -15.32554289	    -27.19797653	     -7.07726056	      9.02695889	      1.05248721	      8.07089348	     -9.83935526	     10.69968993
      4.42000000	     -9.30351215	      9.88618042	     -7.87473791	     -0.30094749	     -0.05628070	      0.61689928	     -5.59809698	    -11.40567801	     -1.30918264	    -30.60307819	     -2.10119810	      8.65717126	     12.46807263	     38.73460923	      5.22697507	    -15.16829160	    -27.45839315	     -6.61016846	      9.10021292	      1.32637268	      8.01690756	     -9.99519225	     10.55400158
      4.42500000	     -9.43105070	     10.05680439	     -7.81010721	     -0.29396882	     -0.05572785	      0.61644311	     -4.71266587	    -11.77437686	     -1.06454943	    -32.38557248	     -3.57317006	      9.00610700	     13.34791058	     38.48961624	      5.53117986	    -15.12844537	    -27.50123592	     -6.46567769	      8.88276764	      2.74193499	      8.18524672	    -10.18847733	     10.48769372
      4.43000000	     -9.46827285	     10.23856588	     -7.70258150	     -0.28704255	     -0.05503152	      0.61604984	     -3.88948266	    -12.13448102	     -0.85215351	    -34.22860116	     -4.93835198	      9.28327049	     13.61587422	     38.13274331	      5.87413166	    -15.11286609	    -27.57857353	     -6.02338379	      9.03539306	      3.16900310	      8.24669224	    -10.42870760	     10.35294204
      4.43500000	     -9.54532846	     10.36559895	     -7.63930850	     -0.28031142	     -0.05432268	      0.61569636	     -2.94033889	    -12.40774639	     -0.51907669	    -36.10915067	     -6.22158723	      9.40892251	     14.15001184	     37.79035136	      6.14213391	    -15.07223807	    -27.58270030	     -5.65152660	      9.06115508	      3.96221600	      8.33487241	    -10.58759205	     10.29401021
